<svg width="4088" height="2569" xmlns="http://www.w3.org/2000/svg" xmlns:xlink="http://www.w3.org/1999/xlink" xml:space="preserve" overflow="hidden"><defs><clipPath id="clip0"><rect x="4104" y="1818" width="4088" height="2569"/></clipPath><clipPath id="clip1"><rect x="4466" y="2044" width="3514" height="2069"/></clipPath><clipPath id="clip2"><rect x="4466" y="2044" width="3514" height="2069"/></clipPath></defs><g clip-path="url(#clip0)" transform="translate(-4104 -1818)"><rect x="4105" y="1819" width="4085" height="2566" fill="#FFFFFF"/><g><path d="M4466.5 3699.62 7980.5 3699.62M4466.5 3286.61 7980.5 3286.61M4466.5 2872.59 7980.5 2872.59M4466.5 2458.58 7980.5 2458.58M4466.5 2044.5 7980.5 2044.5" stroke="#D9D9D9" stroke-width="3.4375" stroke-linejoin="round" stroke-miterlimit="10" fill="none"/></g><g><path d="M4818.66 2044.5 4818.66 4113.5M5169.67 2044.5 5169.67 4113.5M5520.68 2044.5 5520.68 4113.5M5872.69 2044.5 5872.69 4113.5M6223.7 2044.5 6223.7 4113.5M6574.72 2044.5 6574.72 4113.5M6926.73 2044.5 6926.73 4113.5M7277.74 2044.5 7277.74 4113.5M7628.75 2044.5 7628.75 4113.5M7980.5 2044.5 7980.5 4113.5" stroke="#D9D9D9" stroke-width="3.4375" stroke-linejoin="round" stroke-miterlimit="10" fill="none"/></g><g><path d="M0 0 0.000360892 2069" stroke="#BFBFBF" stroke-width="3.4375" stroke-linejoin="round" stroke-miterlimit="10" fill="none" fill-rule="evenodd" transform="matrix(1 0 0 -1 4466.5 4113.5)"/></g><g><path d="M4466.5 4113.5 7980.5 4113.5" stroke="#BFBFBF" stroke-width="3.4375" stroke-linejoin="round" stroke-miterlimit="10" fill="none" fill-rule="evenodd"/></g><g><path d="M5063.09 3470.56C5063.09 3476.64 5058.16 3481.56 5052.09 3481.56 5046.01 3481.56 5041.09 3476.64 5041.09 3470.56 5041.09 3464.49 5046.01 3459.56 5052.09 3459.56 5058.16 3459.56 5063.09 3464.49 5063.09 3470.56Z" stroke="#E97132" stroke-width="3.4375" stroke-linejoin="round" stroke-miterlimit="10" fill="#E97132"/><path d="M4979.09 3572.56C4979.09 3578.64 4974.16 3583.56 4968.09 3583.56 4962.01 3583.56 4957.09 3578.64 4957.09 3572.56 4957.09 3566.49 4962.01 3561.56 4968.09 3561.56 4974.16 3561.56 4979.09 3566.49 4979.09 3572.56Z" stroke="#E97132" stroke-width="3.4375" stroke-linejoin="round" stroke-miterlimit="10" fill="#E97132"/><path d="M4916.09 3621.56C4916.09 3627.64 4911.16 3632.56 4905.09 3632.56 4899.01 3632.56 4894.09 3627.64 4894.09 3621.56 4894.09 3615.49 4899.01 3610.56 4905.09 3610.56 4911.16 3610.56 4916.09 3615.49 4916.09 3621.56Z" stroke="#E97132" stroke-width="3.4375" stroke-linejoin="round" stroke-miterlimit="10" fill="#E97132"/><path d="M4868.09 3670.56C4868.09 3676.64 4863.16 3681.56 4857.09 3681.56 4851.01 3681.56 4846.09 3676.64 4846.09 3670.56 4846.09 3664.49 4851.01 3659.56 4857.09 3659.56 4863.16 3659.56 4868.09 3664.49 4868.09 3670.56Z" stroke="#E97132" stroke-width="3.4375" stroke-linejoin="round" stroke-miterlimit="10" fill="#E97132"/><path d="M4829.09 3707.56C4829.09 3713.64 4824.16 3718.56 4818.09 3718.56 4812.01 3718.56 4807.09 3713.64 4807.09 3707.56 4807.09 3701.49 4812.01 3696.56 4818.09 3696.56 4824.16 3696.56 4829.09 3701.49 4829.09 3707.56Z" stroke="#E97132" stroke-width="3.4375" stroke-linejoin="round" stroke-miterlimit="10" fill="#E97132"/></g><g><path d="M5063.09 3703.56C5063.09 3709.64 5058.16 3714.56 5052.09 3714.56 5046.01 3714.56 5041.09 3709.64 5041.09 3703.56 5041.09 3697.49 5046.01 3692.56 5052.09 3692.56 5058.16 3692.56 5063.09 3697.49 5063.09 3703.56Z" stroke="#196B24" stroke-width="3.4375" stroke-linejoin="round" stroke-miterlimit="10" fill="#196B24"/><path d="M4979.09 3756.56C4979.09 3762.64 4974.16 3767.56 4968.09 3767.56 4962.01 3767.56 4957.09 3762.64 4957.09 3756.56 4957.09 3750.49 4962.01 3745.56 4968.09 3745.56 4974.16 3745.56 4979.09 3750.49 4979.09 3756.56Z" stroke="#196B24" stroke-width="3.4375" stroke-linejoin="round" stroke-miterlimit="10" fill="#196B24"/><path d="M4916.09 3826.56C4916.09 3832.64 4911.16 3837.56 4905.09 3837.56 4899.01 3837.56 4894.09 3832.64 4894.09 3826.56 4894.09 3820.49 4899.01 3815.56 4905.09 3815.56 4911.16 3815.56 4916.09 3820.49 4916.09 3826.56Z" stroke="#196B24" stroke-width="3.4375" stroke-linejoin="round" stroke-miterlimit="10" fill="#196B24"/><path d="M4868.09 3856.56C4868.09 3862.64 4863.16 3867.56 4857.09 3867.56 4851.01 3867.56 4846.09 3862.64 4846.09 3856.56 4846.09 3850.49 4851.01 3845.56 4857.09 3845.56 4863.16 3845.56 4868.09 3850.49 4868.09 3856.56Z" stroke="#196B24" stroke-width="3.4375" stroke-linejoin="round" stroke-miterlimit="10" fill="#196B24"/><path d="M4829.09 3882.56C4829.09 3888.64 4824.16 3893.56 4818.09 3893.56 4812.01 3893.56 4807.09 3888.64 4807.09 3882.56 4807.09 3876.49 4812.01 3871.56 4818.09 3871.56 4824.16 3871.56 4829.09 3876.49 4829.09 3882.56Z" stroke="#196B24" stroke-width="3.4375" stroke-linejoin="round" stroke-miterlimit="10" fill="#196B24"/></g><g clip-path="url(#clip1)"><path d="M0 0 2342 2330" stroke="#E97132" stroke-width="6.875" stroke-linecap="round" stroke-linejoin="round" stroke-miterlimit="10" stroke-dasharray="0 13.75" fill="none" fill-rule="evenodd" transform="matrix(1 0 0 -1 4291.5 4234.5)"/></g><g clip-path="url(#clip2)"><path d="M0 0 3572 2833" stroke="#196B24" stroke-width="6.875" stroke-linecap="round" stroke-linejoin="round" stroke-miterlimit="10" stroke-dasharray="0 13.75" fill="none" fill-rule="evenodd" transform="matrix(1 0 0 -1 4291.5 4304.5)"/></g><g><text fill="#595959" font-family="CMU Serif,CMU Serif_MSFontService,sans-serif" font-weight="500" font-size="46" transform="matrix(1 0 0 1 5635.42 2295)">y = 0.0021x + 0.0007</text></g><g><text fill="#595959" font-family="CMU Serif,CMU Serif_MSFontService,sans-serif" font-weight="500" font-size="46" transform="matrix(1 0 0 1 5729.29 2349)">R² = 0.9942</text></g><g><text fill="#595959" font-family="CMU Serif,CMU Serif_MSFontService,sans-serif" font-weight="500" font-size="46" transform="matrix(1 0 0 1 6845.42 2378)">y = 0.0017x </text></g><g><text fill="#595959" font-family="CMU Serif,CMU Serif_MSFontService,sans-serif" font-weight="500" font-size="46" transform="matrix(1 0 0 1 7102.5 2378)">-</text></g><g><text fill="#595959" font-family="CMU Serif,CMU Serif_MSFontService,sans-serif" font-weight="500" font-size="46" transform="matrix(1 0 0 1 7133.03 2378)">0.0006</text></g><g><text fill="#595959" font-family="CMU Serif,CMU Serif_MSFontService,sans-serif" font-weight="500" font-size="46" transform="matrix(1 0 0 1 6929.09 2432)">R² = 0.9891</text></g><g><text fill="#595959" font-family="CMU Serif,CMU Serif_MSFontService,sans-serif" font-weight="500" font-size="50" transform="matrix(1 0 0 1 4230.81 4129)">0.000000</text></g><g><text fill="#595959" font-family="CMU Serif,CMU Serif_MSFontService,sans-serif" font-weight="500" font-size="50" transform="matrix(1 0 0 1 4230.81 3715)">0.005000</text></g><g><text fill="#595959" font-family="CMU Serif,CMU Serif_MSFontService,sans-serif" font-weight="500" font-size="50" transform="matrix(1 0 0 1 4230.81 3301)">0.010000</text></g><g><text fill="#595959" font-family="CMU Serif,CMU Serif_MSFontService,sans-serif" font-weight="500" font-size="50" transform="matrix(1 0 0 1 4230.81 2887)">0.015000</text></g><g><text fill="#595959" font-family="CMU Serif,CMU Serif_MSFontService,sans-serif" font-weight="500" font-size="50" transform="matrix(1 0 0 1 4230.81 2473)">0.020000</text></g><g><text fill="#595959" font-family="CMU Serif,CMU Serif_MSFontService,sans-serif" font-weight="500" font-size="50" transform="matrix(1 0 0 1 4230.81 2059)">0.025000</text></g><g><text fill="#595959" font-family="CMU Serif,CMU Serif_MSFontService,sans-serif" font-weight="500" font-size="50" transform="matrix(1 0 0 1 4409.45 4192)">0.000</text></g><g><text fill="#595959" font-family="CMU Serif,CMU Serif_MSFontService,sans-serif" font-weight="500" font-size="50" transform="matrix(1 0 0 1 4760.81 4192)">2.000</text></g><g><text fill="#595959" font-family="CMU Serif,CMU Serif_MSFontService,sans-serif" font-weight="500" font-size="50" transform="matrix(1 0 0 1 5112.18 4192)">4.000</text></g><g><text fill="#595959" font-family="CMU Serif,CMU Serif_MSFontService,sans-serif" font-weight="500" font-size="50" transform="matrix(1 0 0 1 5463.54 4192)">6.000</text></g><g><text fill="#595959" font-family="CMU Serif,CMU Serif_MSFontService,sans-serif" font-weight="500" font-size="50" transform="matrix(1 0 0 1 5814.91 4192)">8.000</text></g><g><text fill="#595959" font-family="CMU Serif,CMU Serif_MSFontService,sans-serif" font-weight="500" font-size="50" transform="matrix(1 0 0 1 6153.67 4192)">10.000</text></g><g><text fill="#595959" font-family="CMU Serif,CMU Serif_MSFontService,sans-serif" font-weight="500" font-size="50" transform="matrix(1 0 0 1 6505.04 4192)">12.000</text></g><g><text fill="#595959" font-family="CMU Serif,CMU Serif_MSFontService,sans-serif" font-weight="500" font-size="50" transform="matrix(1 0 0 1 6856.4 4192)">14.000</text></g><g><text fill="#595959" font-family="CMU Serif,CMU Serif_MSFontService,sans-serif" font-weight="500" font-size="50" transform="matrix(1 0 0 1 7207.77 4192)">16.000</text></g><g><text fill="#595959" font-family="CMU Serif,CMU Serif_MSFontService,sans-serif" font-weight="500" font-size="50" transform="matrix(1 0 0 1 7559.13 4192)">18.000</text></g><g><text fill="#595959" font-family="CMU Serif,CMU Serif_MSFontService,sans-serif" font-weight="500" font-size="50" transform="matrix(1 0 0 1 7910.5 4192)">20.000</text></g><g><text fill="#595959" font-family="CMU Serif,CMU Serif_MSFontService,sans-serif" font-weight="700" font-size="64" transform="matrix(6.12323e-17 -1 1 6.12323e-17 4201.02 3168)">ɣ (s</text></g><g><text fill="#595959" font-family="CMU Serif,CMU Serif_MSFontService,sans-serif" font-weight="700" font-size="43" transform="matrix(6.12323e-17 -1 1 6.12323e-17 4182.02 3055)">-</text></g><g><text fill="#595959" font-family="CMU Serif,CMU Serif_MSFontService,sans-serif" font-weight="700" font-size="43" transform="matrix(6.12323e-17 -1 1 6.12323e-17 4182.02 3040)">1</text></g><g><text fill="#595959" font-family="CMU Serif,CMU Serif_MSFontService,sans-serif" font-weight="700" font-size="64" transform="matrix(6.12323e-17 -1 1 6.12323e-17 4201.02 3017)">) </text></g><g><text fill="#595959" font-family="CMU Serif,CMU Serif_MSFontService,sans-serif" font-weight="700" font-size="64" transform="matrix(1 0 0 1 6085.3 4279)">m</text></g><g><text fill="#595959" font-family="CMU Serif,CMU Serif_MSFontService,sans-serif" font-weight="700" font-size="43" transform="matrix(1 0 0 1 6140.48 4260)">-</text></g><g><text fill="#595959" font-family="CMU Serif,CMU Serif_MSFontService,sans-serif" font-weight="700" font-size="43" transform="matrix(1 0 0 1 6155.88 4260)">1</text></g><g><text fill="#595959" font-family="CMU Serif,CMU Serif_MSFontService,sans-serif" font-weight="700" font-size="64" transform="matrix(1 0 0 1 6201.53 4279)">(kg</text></g><g><text fill="#595959" font-family="CMU Serif,CMU Serif_MSFontService,sans-serif" font-weight="700" font-size="43" transform="matrix(1 0 0 1 6297.53 4260)">-</text></g><g><text fill="#595959" font-family="CMU Serif,CMU Serif_MSFontService,sans-serif" font-weight="700" font-size="43" transform="matrix(1 0 0 1 6312.93 4260)">1</text></g><g><text fill="#595959" font-family="CMU Serif,CMU Serif_MSFontService,sans-serif" font-weight="700" font-size="64" transform="matrix(1 0 0 1 6335.48 4279)">)</text></g><g><text fill="#595959" font-family="CMU Serif,CMU Serif_MSFontService,sans-serif" font-weight="700" font-size="128" transform="matrix(1 0 0 1 5910.01 1973)">ɣ vs m</text></g><g><text fill="#595959" font-family="CMU Serif,CMU Serif_MSFontService,sans-serif" font-weight="700" font-size="86" transform="matrix(1 0 0 1 6309.13 1934)">-</text></g><g><text fill="#595959" font-family="CMU Serif,CMU Serif_MSFontService,sans-serif" font-weight="700" font-size="86" transform="matrix(1 0 0 1 6339.93 1934)">1</text></g><g><path d="M7240 4292C7240 4298.07 7235.08 4303 7229 4303 7222.92 4303 7218 4298.07 7218 4292 7218 4285.92 7222.92 4281 7229 4281 7235.08 4281 7240 4285.92 7240 4292Z" stroke="#E97132" stroke-width="3.4375" stroke-linejoin="round" stroke-miterlimit="10" fill="#E97132"/></g><g><text fill="#595959" font-family="CMU Serif,CMU Serif_MSFontService,sans-serif" font-weight="500" font-size="50" transform="matrix(1 0 0 1 7255.01 4307)">stiff spring</text></g><g><path d="M7577 4292C7577 4298.07 7572.08 4303 7566 4303 7559.92 4303 7555 4298.07 7555 4292 7555 4285.92 7559.92 4281 7566 4281 7572.08 4281 7577 4285.92 7577 4292Z" stroke="#196B24" stroke-width="3.4375" stroke-linejoin="round" stroke-miterlimit="10" fill="#196B24"/></g><g><text fill="#595959" font-family="CMU Serif,CMU Serif_MSFontService,sans-serif" font-weight="500" font-size="50" transform="matrix(1 0 0 1 7591.91 4307)">series stiff springs</text></g><rect x="4105.5" y="1819.5" width="4085" height="2566" stroke="#D9D9D9" stroke-width="3.4375" stroke-linejoin="round" stroke-miterlimit="10" fill="none"/></g></svg>