<svg width="4108" height="2569" xmlns="http://www.w3.org/2000/svg" xmlns:xlink="http://www.w3.org/1999/xlink" xml:space="preserve" overflow="hidden"><defs><clipPath id="clip0"><rect x="-1" y="1819" width="4108" height="2569"/></clipPath><clipPath id="clip1"><rect x="363" y="2045" width="3530" height="2070"/></clipPath><clipPath id="clip2"><rect x="363" y="2045" width="3530" height="2070"/></clipPath><clipPath id="clip3"><rect x="363" y="2045" width="3530" height="2070"/></clipPath></defs><g clip-path="url(#clip0)" transform="translate(1 -1819)"><rect x="0" y="1820" width="4105" height="2566" fill="#FFFFFF"/><g><path d="M363.5 3908.63 3893.5 3908.63M363.5 3701.62 3893.5 3701.62M363.5 3494.61 3893.5 3494.61M363.5 3287.61 3893.5 3287.61M363.5 3080.6 3893.5 3080.6M363.5 2873.59 3893.5 2873.59M363.5 2666.59 3893.5 2666.59M363.5 2459.58 3893.5 2459.58M363.5 2252.57 3893.5 2252.57M363.5 2045.5 3893.5 2045.5" stroke="#D9D9D9" stroke-width="3.4375" stroke-linejoin="round" stroke-miterlimit="10" fill="none"/></g><g><path d="M1069.54 2045.5 1069.54 4115.5M1775.56 2045.5 1775.56 4115.5M2481.58 2045.5 2481.58 4115.5M3187.6 2045.5 3187.6 4115.5M3893.5 2045.5 3893.5 4115.5" stroke="#D9D9D9" stroke-width="3.4375" stroke-linejoin="round" stroke-miterlimit="10" fill="none"/></g><g><path d="M0 0 0.000360892 2070" stroke="#BFBFBF" stroke-width="3.4375" stroke-linejoin="round" stroke-miterlimit="10" fill="none" fill-rule="evenodd" transform="matrix(1 0 0 -1 363.5 4115.5)"/></g><g><path d="M363.5 4115.5 3893.5 4115.5" stroke="#BFBFBF" stroke-width="3.4375" stroke-linejoin="round" stroke-miterlimit="10" fill="none" fill-rule="evenodd"/></g><g><path d="M3184.5 2207.7C3184.5 2213.78 3179.57 2218.7 3173.5 2218.7 3167.42 2218.7 3162.5 2213.78 3162.5 2207.7 3162.5 2201.63 3167.42 2196.7 3173.5 2196.7 3179.57 2196.7 3184.5 2201.63 3184.5 2207.7Z" stroke="#156082" stroke-width="3.4375" stroke-linejoin="round" stroke-miterlimit="10" fill="#156082"/><path d="M1784.5 3129.7C1784.5 3135.78 1779.57 3140.7 1773.5 3140.7 1767.42 3140.7 1762.5 3135.78 1762.5 3129.7 1762.5 3123.63 1767.42 3118.7 1773.5 3118.7 1779.57 3118.7 1784.5 3123.63 1784.5 3129.7Z" stroke="#156082" stroke-width="3.4375" stroke-linejoin="round" stroke-miterlimit="10" fill="#156082"/><path d="M1313.5 3465.7C1313.5 3471.78 1308.57 3476.7 1302.5 3476.7 1296.42 3476.7 1291.5 3471.78 1291.5 3465.7 1291.5 3459.63 1296.42 3454.7 1302.5 3454.7 1308.57 3454.7 1313.5 3459.63 1313.5 3465.7Z" stroke="#156082" stroke-width="3.4375" stroke-linejoin="round" stroke-miterlimit="10" fill="#156082"/><path d="M1080.5 3624.7C1080.5 3630.78 1075.57 3635.7 1069.5 3635.7 1063.42 3635.7 1058.5 3630.78 1058.5 3624.7 1058.5 3618.63 1063.42 3613.7 1069.5 3613.7 1075.57 3613.7 1080.5 3618.63 1080.5 3624.7Z" stroke="#156082" stroke-width="3.4375" stroke-linejoin="round" stroke-miterlimit="10" fill="#156082"/><path d="M939.499 3721.7C939.499 3727.78 934.575 3732.7 928.5 3732.7 922.425 3732.7 917.5 3727.78 917.5 3721.7 917.5 3715.63 922.425 3710.7 928.5 3710.7 934.575 3710.7 939.499 3715.63 939.499 3721.7Z" stroke="#156082" stroke-width="3.4375" stroke-linejoin="round" stroke-miterlimit="10" fill="#156082"/><path d="M845.499 3785.7C845.499 3791.78 840.575 3796.7 834.5 3796.7 828.425 3796.7 823.5 3791.78 823.5 3785.7 823.5 3779.63 828.425 3774.7 834.5 3774.7 840.575 3774.7 845.499 3779.63 845.499 3785.7Z" stroke="#156082" stroke-width="3.4375" stroke-linejoin="round" stroke-miterlimit="10" fill="#156082"/><path d="M778.499 3831.7C778.499 3837.78 773.575 3842.7 767.5 3842.7 761.425 3842.7 756.5 3837.78 756.5 3831.7 756.5 3825.63 761.425 3820.7 767.5 3820.7 773.575 3820.7 778.499 3825.63 778.499 3831.7Z" stroke="#156082" stroke-width="3.4375" stroke-linejoin="round" stroke-miterlimit="10" fill="#156082"/></g><g><path d="M845.499 3370.7C845.499 3376.78 840.575 3381.7 834.5 3381.7 828.425 3381.7 823.5 3376.78 823.5 3370.7 823.5 3364.63 828.425 3359.7 834.5 3359.7 840.575 3359.7 845.499 3364.63 845.499 3370.7Z" stroke="#E97132" stroke-width="3.4375" stroke-linejoin="round" stroke-miterlimit="10" fill="#E97132"/><path d="M778.499 3473.7C778.499 3479.78 773.575 3484.7 767.5 3484.7 761.425 3484.7 756.5 3479.78 756.5 3473.7 756.5 3467.63 761.425 3462.7 767.5 3462.7 773.575 3462.7 778.499 3467.63 778.499 3473.7Z" stroke="#E97132" stroke-width="3.4375" stroke-linejoin="round" stroke-miterlimit="10" fill="#E97132"/><path d="M727.499 3551.7C727.499 3557.78 722.574 3562.7 716.5 3562.7 710.425 3562.7 705.5 3557.78 705.5 3551.7 705.5 3545.63 710.425 3540.7 716.5 3540.7 722.574 3540.7 727.499 3545.63 727.499 3551.7Z" stroke="#E97132" stroke-width="3.4375" stroke-linejoin="round" stroke-miterlimit="10" fill="#E97132"/><path d="M688.499 3612.7C688.499 3618.78 683.575 3623.7 677.5 3623.7 671.425 3623.7 666.5 3618.78 666.5 3612.7 666.5 3606.63 671.425 3601.7 677.5 3601.7 683.575 3601.7 688.499 3606.63 688.499 3612.7Z" stroke="#E97132" stroke-width="3.4375" stroke-linejoin="round" stroke-miterlimit="10" fill="#E97132"/><path d="M657.499 3661.7C657.499 3667.78 652.575 3672.7 646.5 3672.7 640.425 3672.7 635.5 3667.78 635.5 3661.7 635.5 3655.63 640.425 3650.7 646.5 3650.7 652.575 3650.7 657.499 3655.63 657.499 3661.7Z" stroke="#E97132" stroke-width="3.4375" stroke-linejoin="round" stroke-miterlimit="10" fill="#E97132"/></g><g><path d="M845.499 3735.7C845.499 3741.78 840.575 3746.7 834.5 3746.7 828.425 3746.7 823.5 3741.78 823.5 3735.7 823.5 3729.63 828.425 3724.7 834.5 3724.7 840.575 3724.7 845.499 3729.63 845.499 3735.7Z" stroke="#196B24" stroke-width="3.4375" stroke-linejoin="round" stroke-miterlimit="10" fill="#196B24"/><path d="M778.499 3786.7C778.499 3792.78 773.575 3797.7 767.5 3797.7 761.425 3797.7 756.5 3792.78 756.5 3786.7 756.5 3780.63 761.425 3775.7 767.5 3775.7 773.575 3775.7 778.499 3780.63 778.499 3786.7Z" stroke="#196B24" stroke-width="3.4375" stroke-linejoin="round" stroke-miterlimit="10" fill="#196B24"/><path d="M727.499 3825.7C727.499 3831.78 722.574 3836.7 716.5 3836.7 710.425 3836.7 705.5 3831.78 705.5 3825.7 705.5 3819.63 710.425 3814.7 716.5 3814.7 722.574 3814.7 727.499 3819.63 727.499 3825.7Z" stroke="#196B24" stroke-width="3.4375" stroke-linejoin="round" stroke-miterlimit="10" fill="#196B24"/><path d="M688.499 3856.7C688.499 3862.78 683.575 3867.7 677.5 3867.7 671.425 3867.7 666.5 3862.78 666.5 3856.7 666.5 3850.63 671.425 3845.7 677.5 3845.7 683.575 3845.7 688.499 3850.63 688.499 3856.7Z" stroke="#196B24" stroke-width="3.4375" stroke-linejoin="round" stroke-miterlimit="10" fill="#196B24"/><path d="M657.499 3881.7C657.499 3887.78 652.575 3892.7 646.5 3892.7 640.425 3892.7 635.5 3887.78 635.5 3881.7 635.5 3875.63 640.425 3870.7 646.5 3870.7 652.575 3870.7 657.499 3875.63 657.499 3881.7Z" stroke="#196B24" stroke-width="3.4375" stroke-linejoin="round" stroke-miterlimit="10" fill="#196B24"/></g><g clip-path="url(#clip1)"><path d="M0 0 3254 2200" stroke="#156082" stroke-width="6.875" stroke-linecap="round" stroke-linejoin="round" stroke-miterlimit="10" stroke-dasharray="0 13.75" fill="none" fill-rule="evenodd" transform="matrix(1 0 0 -1 202.5 4209.5)"/></g><g clip-path="url(#clip2)"><path d="M0 0 1600 2473" stroke="#E97132" stroke-width="6.875" stroke-linecap="round" stroke-linejoin="round" stroke-miterlimit="10" stroke-dasharray="0 13.75" fill="none" fill-rule="evenodd" transform="matrix(1 0 0 -1 222.5 4315.5)"/></g><g clip-path="url(#clip3)"><path d="M0 0 2871 2228" stroke="#196B24" stroke-width="6.875" stroke-linecap="round" stroke-linejoin="round" stroke-miterlimit="10" stroke-dasharray="0 13.75" fill="none" fill-rule="evenodd" transform="matrix(1 0 0 -1 222.5 4209.5)"/></g><g><text fill="#595959" font-family="CMU Serif,CMU Serif_MSFontService,sans-serif" font-weight="500" font-size="46" transform="matrix(1 0 0 1 2921.11 2490)">y = 23.072x + 3.5092</text></g><g><text fill="#595959" font-family="CMU Serif,CMU Serif_MSFontService,sans-serif" font-weight="500" font-size="46" transform="matrix(1 0 0 1 3014.97 2544)">R² = 0.9998</text></g><g><text fill="#595959" font-family="CMU Serif,CMU Serif_MSFontService,sans-serif" font-weight="500" font-size="46" transform="matrix(1 0 0 1 1064.96 2169)">y = 52.726x + 4.2788</text></g><g><text fill="#595959" font-family="CMU Serif,CMU Serif_MSFontService,sans-serif" font-weight="500" font-size="46" transform="matrix(1 0 0 1 1211.03 2223)">R² = 1</text></g><g><text fill="#595959" font-family="CMU Serif,CMU Serif_MSFontService,sans-serif" font-weight="500" font-size="46" transform="matrix(1 0 0 1 2215 2149)">y = 26.477x + 3.6545</text></g><g><text fill="#595959" font-family="CMU Serif,CMU Serif_MSFontService,sans-serif" font-weight="500" font-size="46" transform="matrix(1 0 0 1 2308.86 2203)">R² = 0.9999</text></g><g><text fill="#595959" font-family="CMU Serif,CMU Serif_MSFontService,sans-serif" font-weight="500" font-size="50" transform="matrix(1 0 0 1 228.717 4130)">0.00</text></g><g><text fill="#595959" font-family="CMU Serif,CMU Serif_MSFontService,sans-serif" font-weight="500" font-size="50" transform="matrix(1 0 0 1 203.508 3923)">50.00</text></g><g><text fill="#595959" font-family="CMU Serif,CMU Serif_MSFontService,sans-serif" font-weight="500" font-size="50" transform="matrix(1 0 0 1 178.3 3716)">100.00</text></g><g><text fill="#595959" font-family="CMU Serif,CMU Serif_MSFontService,sans-serif" font-weight="500" font-size="50" transform="matrix(1 0 0 1 178.3 3509)">150.00</text></g><g><text fill="#595959" font-family="CMU Serif,CMU Serif_MSFontService,sans-serif" font-weight="500" font-size="50" transform="matrix(1 0 0 1 178.3 3302)">200.00</text></g><g><text fill="#595959" font-family="CMU Serif,CMU Serif_MSFontService,sans-serif" font-weight="500" font-size="50" transform="matrix(1 0 0 1 178.3 3095)">250.00</text></g><g><text fill="#595959" font-family="CMU Serif,CMU Serif_MSFontService,sans-serif" font-weight="500" font-size="50" transform="matrix(1 0 0 1 178.3 2888)">300.00</text></g><g><text fill="#595959" font-family="CMU Serif,CMU Serif_MSFontService,sans-serif" font-weight="500" font-size="50" transform="matrix(1 0 0 1 178.3 2681)">350.00</text></g><g><text fill="#595959" font-family="CMU Serif,CMU Serif_MSFontService,sans-serif" font-weight="500" font-size="50" transform="matrix(1 0 0 1 178.3 2474)">400.00</text></g><g><text fill="#595959" font-family="CMU Serif,CMU Serif_MSFontService,sans-serif" font-weight="500" font-size="50" transform="matrix(1 0 0 1 178.3 2267)">450.00</text></g><g><text fill="#595959" font-family="CMU Serif,CMU Serif_MSFontService,sans-serif" font-weight="500" font-size="50" transform="matrix(1 0 0 1 178.3 2060)">500.00</text></g><g><text fill="#595959" font-family="CMU Serif,CMU Serif_MSFontService,sans-serif" font-weight="500" font-size="41" transform="matrix(1 0 0 1 316.973 4180)">0.000</text></g><g><text fill="#595959" font-family="CMU Serif,CMU Serif_MSFontService,sans-serif" font-weight="500" font-size="41" transform="matrix(1 0 0 1 1022.93 4180)">5.000</text></g><g><text fill="#595959" font-family="CMU Serif,CMU Serif_MSFontService,sans-serif" font-weight="500" font-size="41" transform="matrix(1 0 0 1 1718.57 4180)">10.000</text></g><g><text fill="#595959" font-family="CMU Serif,CMU Serif_MSFontService,sans-serif" font-weight="500" font-size="41" transform="matrix(1 0 0 1 2424.53 4180)">15.000</text></g><g><text fill="#595959" font-family="CMU Serif,CMU Serif_MSFontService,sans-serif" font-weight="500" font-size="41" transform="matrix(1 0 0 1 3130.48 4180)">20.000</text></g><g><text fill="#595959" font-family="CMU Serif,CMU Serif_MSFontService,sans-serif" font-weight="500" font-size="41" transform="matrix(1 0 0 1 3836.44 4180)">25.000</text></g><g><text fill="#595959" font-family="CMU Serif,CMU Serif_MSFontService,sans-serif" font-weight="700" font-size="64" transform="matrix(6.12323e-17 -1 1 6.12323e-17 115.804 3249)">ω'</text></g><g><text fill="#595959" font-family="CMU Serif,CMU Serif_MSFontService,sans-serif" font-weight="700" font-size="43" transform="matrix(6.12323e-17 -1 1 6.12323e-17 96.8061 3185)">2</text></g><g><text fill="#595959" font-family="CMU Serif,CMU Serif_MSFontService,sans-serif" font-weight="700" font-size="64" transform="matrix(6.12323e-17 -1 1 6.12323e-17 115.804 3139)">+ </text></g><g><text fill="#595959" font-family="CMU Serif,CMU Serif_MSFontService,sans-serif" font-weight="700" font-size="64" transform="matrix(6.12323e-17 -1 1 6.12323e-17 115.804 3064)">ɣ</text></g><g><text fill="#595959" font-family="CMU Serif,CMU Serif_MSFontService,sans-serif" font-weight="700" font-size="43" transform="matrix(6.12323e-17 -1 1 6.12323e-17 96.8061 3029)">2</text></g><g><text fill="#595959" font-family="CMU Serif,CMU Serif_MSFontService,sans-serif" font-weight="700" font-size="64" transform="matrix(6.12323e-17 -1 1 6.12323e-17 115.804 2983)">(s</text></g><g><text fill="#595959" font-family="CMU Serif,CMU Serif_MSFontService,sans-serif" font-weight="700" font-size="43" transform="matrix(6.12323e-17 -1 1 6.12323e-17 96.8061 2929)">-</text></g><g><text fill="#595959" font-family="CMU Serif,CMU Serif_MSFontService,sans-serif" font-weight="700" font-size="43" transform="matrix(6.12323e-17 -1 1 6.12323e-17 96.8061 2914)">2</text></g><g><text fill="#595959" font-family="CMU Serif,CMU Serif_MSFontService,sans-serif" font-weight="700" font-size="64" transform="matrix(6.12323e-17 -1 1 6.12323e-17 115.804 2891)">) </text></g><g><text fill="#595959" font-family="CMU Serif,CMU Serif_MSFontService,sans-serif" font-weight="700" font-size="64" transform="matrix(1 0 0 1 1990.44 4263)">m</text></g><g><text fill="#595959" font-family="CMU Serif,CMU Serif_MSFontService,sans-serif" font-weight="700" font-size="43" transform="matrix(1 0 0 1 2045.62 4244)">-</text></g><g><text fill="#595959" font-family="CMU Serif,CMU Serif_MSFontService,sans-serif" font-weight="700" font-size="43" transform="matrix(1 0 0 1 2061.02 4244)">1</text></g><g><text fill="#595959" font-family="CMU Serif,CMU Serif_MSFontService,sans-serif" font-weight="700" font-size="64" transform="matrix(1 0 0 1 2106.67 4263)">(kg</text></g><g><text fill="#595959" font-family="CMU Serif,CMU Serif_MSFontService,sans-serif" font-weight="700" font-size="43" transform="matrix(1 0 0 1 2202.67 4244)">-</text></g><g><text fill="#595959" font-family="CMU Serif,CMU Serif_MSFontService,sans-serif" font-weight="700" font-size="43" transform="matrix(1 0 0 1 2218.07 4244)">1</text></g><g><text fill="#595959" font-family="CMU Serif,CMU Serif_MSFontService,sans-serif" font-weight="700" font-size="64" transform="matrix(1 0 0 1 2240.62 4263)">)</text></g><g><text fill="#595959" font-family="CMU Serif,CMU Serif_MSFontService,sans-serif" font-weight="700" font-size="128" transform="matrix(1 0 0 1 1607.77 1975)">ω'</text></g><g><text fill="#595959" font-family="CMU Serif,CMU Serif_MSFontService,sans-serif" font-weight="700" font-size="86" transform="matrix(1 0 0 1 1735.96 1936)">2</text></g><g><text fill="#595959" font-family="CMU Serif,CMU Serif_MSFontService,sans-serif" font-weight="700" font-size="128" transform="matrix(1 0 0 1 1827.24 1975)">+ </text></g><g><text fill="#595959" font-family="CMU Serif,CMU Serif_MSFontService,sans-serif" font-weight="700" font-size="128" transform="matrix(1 0 0 1 1976.75 1975)">ɣ</text></g><g><text fill="#595959" font-family="CMU Serif,CMU Serif_MSFontService,sans-serif" font-weight="700" font-size="86" transform="matrix(1 0 0 1 2047.97 1936)">2</text></g><g><text fill="#595959" font-family="CMU Serif,CMU Serif_MSFontService,sans-serif" font-weight="700" font-size="128" transform="matrix(1 0 0 1 2139.25 1975)">vs m</text></g><g><text fill="#595959" font-family="CMU Serif,CMU Serif_MSFontService,sans-serif" font-weight="700" font-size="86" transform="matrix(1 0 0 1 2420.94 1936)">-</text></g><g><text fill="#595959" font-family="CMU Serif,CMU Serif_MSFontService,sans-serif" font-weight="700" font-size="86" transform="matrix(1 0 0 1 2451.74 1936)">1</text></g><g><path d="M2765 4284C2765 4290.07 2760.07 4295 2754 4295 2747.93 4295 2743 4290.07 2743 4284 2743 4277.92 2747.93 4273 2754 4273 2760.07 4273 2765 4277.92 2765 4284Z" stroke="#156082" stroke-width="3.4375" stroke-linejoin="round" stroke-miterlimit="10" fill="#156082"/></g><g><text fill="#595959" font-family="CMU Serif,CMU Serif_MSFontService,sans-serif" font-weight="500" font-size="50" transform="matrix(1 0 0 1 2779.78 4299)">light spring</text></g><g><path d="M3118 4284C3118 4290.07 3113.07 4295 3107 4295 3100.93 4295 3096 4290.07 3096 4284 3096 4277.92 3100.93 4273 3107 4273 3113.07 4273 3118 4277.92 3118 4284Z" stroke="#E97132" stroke-width="3.4375" stroke-linejoin="round" stroke-miterlimit="10" fill="#E97132"/></g><g><text fill="#595959" font-family="CMU Serif,CMU Serif_MSFontService,sans-serif" font-weight="500" font-size="50" transform="matrix(1 0 0 1 3132.55 4299)">stiff spring</text></g><g><path d="M3454.02 4284C3454.02 4290.07 3449.31 4295 3443.5 4295 3437.69 4295 3432.98 4290.07 3432.98 4284 3432.98 4277.92 3437.69 4273 3443.5 4273 3449.31 4273 3454.02 4277.92 3454.02 4284Z" stroke="#196B24" stroke-width="3.4375" stroke-linejoin="round" stroke-miterlimit="10" fill="#196B24"/></g><g><text fill="#595959" font-family="CMU Serif,CMU Serif_MSFontService,sans-serif" font-weight="500" font-size="50" transform="matrix(1 0 0 1 3468.8 4299)">series stiff springs</text></g><rect x="0.499836" y="1820.5" width="4105" height="2566" stroke="#D9D9D9" stroke-width="3.4375" stroke-linejoin="round" stroke-miterlimit="10" fill="none"/></g></svg>